PathFileType	4	(X/Y/Z)	C:/Users/opensim2020/Desktop/walking_exp_matlab/subject03_walking16_run.trc	
DataRate	CameraRate	NumFrames	NumMarkers	Units	OrigDataRate	OrigDataStartFrame	OrigNumFrames	
100.00	100.00	9	49	mm	100.00	207	131	
Frame#	Time	RKNE			RTOE			RWRB			LTHI			RELB			RFRM			RUPA			RASI			LTIB			RWRA			RTHI			LSHO			LTOE			RTIB			LWRA			CLAV			LASI			RSHO			RFHD			STRN			LHEE			RFIN			RBHD			LFRM			C7			LWRB			LFIN			LUPA			LBHD			LELB			RANK			RHEE			RBAK			LPSI			T10			LFHD			RPSI			LKNE			LANK			*39			*40			*41			*42			*43			*44			*45			*46			*47			*48			
		X1	Y1	Z1	X2	Y2	Z2	X3	Y3	Z3	X4	Y4	Z4	X5	Y5	Z5	X6	Y6	Z6	X7	Y7	Z7	X8	Y8	Z8	X9	Y9	Z9	X10	Y10	Z10	X11	Y11	Z11	X12	Y12	Z12	X13	Y13	Z13	X14	Y14	Z14	X15	Y15	Z15	X16	Y16	Z16	X17	Y17	Z17	X18	Y18	Z18	X19	Y19	Z19	X20	Y20	Z20	X21	Y21	Z21	X22	Y22	Z22	X23	Y23	Z23	X24	Y24	Z24	X25	Y25	Z25	X26	Y26	Z26	X27	Y27	Z27	X28	Y28	Z28	X29	Y29	Z29	X30	Y30	Z30	X31	Y31	Z31	X32	Y32	Z32	X33	Y33	Z33	X34	Y34	Z34	X35	Y35	Z35	X36	Y36	Z36	X37	Y37	Z37	X38	Y38	Z38	X39	Y39	Z39	X40	Y40	Z40	X41	Y41	Z41	X42	Y42	Z42	X43	Y43	Z43	X44	Y44	Z44	X45	Y45	Z45	X46	Y46	Z46	X47	Y47	Z47	X48	Y48	Z48	X49	Y49	Z49	

17	0.160	336.24884	-1323.97437	467.65845	261.05103	-1677.98389	87.34452	353.00864	-959.79419	1092.02966	63.45732	-1087.78650	648.91937	482.74829	-1138.05823	1102.89832	411.58789	-1040.11230	1099.75208	467.52972	-1154.83496	1189.90637	340.76456	-1112.49512	914.28491	115.72141	-1004.29211	296.54388	338.81454	-982.51111	1138.56787	376.26593	-1261.88586	638.77570	71.82536	-1158.80359	1391.24976	199.68066	-810.67584	64.01979	344.28470	-1488.99524	357.08038	-10.19423	-1247.72485	996.17285	205.21339	-1089.87573	1336.33716	114.99883	-1117.09558	932.08472	357.92374	-1133.92578	1385.36108	284.40005	-1117.61511	1622.17004	199.81828	-1053.38733	1167.74963	211.15448	-999.02490	61.01617	317.05026	-905.55597	1126.83044	270.57645	-1224.42297	1548.92188	-75.08899	-1283.05115	1098.82544	209.95192	-1216.78052	1408.15967	-67.67419	-1245.43811	987.04285	-31.60828	-1264.20715	899.69232	-54.40616	-1267.92627	1292.36926	140.91423	-1210.02051	1547.06555	-102.40810	-1330.11401	1203.76746	305.89551	-1665.10510	232.73868	258.66440	-1700.61377	269.02509	321.82098	-1255.46667	1247.66553	159.20444	-1272.47668	971.51074	234.90724	-1262.00195	1107.29053	152.53912	-1098.20459	1620.91992	310.96774	-1259.82056	979.81561	104.28257	-1006.22913	493.48828	167.17238	-966.82288	90.07258																						192.26727	-1198.60449	1657.73633						 
18	0.170	336.90085	-1279.24084	460.95862	267.06702	-1649.76306	99.55405	354.94385	-932.30597	1079.24902	61.84314	-1062.57410	642.41370	485.63882	-1109.79822	1100.48767	414.14828	-1011.85382	1091.88147	469.62006	-1126.18311	1189.12024	341.01157	-1080.96387	914.34259	119.79890	-978.51099	294.70959	339.70547	-952.95105	1126.20508	375.68530	-1221.74292	633.95502	70.26193	-1126.44312	1387.86987	202.26805	-788.74506	58.46545	346.37415	-1451.25647	359.71371	-9.99970	-1206.82312	989.56256	205.19122	-1058.22278	1334.93323	115.40437	-1087.56616	929.16760	358.72366	-1102.42700	1383.82703	284.38202	-1088.16321	1621.36975	201.08563	-1022.34766	1166.02893	217.52515	-976.45538	59.98049	318.64246	-876.01221	1110.29468	269.80463	-1194.30786	1547.32495	-76.06101	-1243.76868	1090.86536	208.63512	-1185.23547	1406.22742	-66.90564	-1205.50659	979.62653	-29.82310	-1222.65466	892.57532	-56.18710	-1232.55615	1284.94397	140.23961	-1178.93982	1545.65283	-104.31747	-1292.54077	1195.06348	307.98914	-1634.08887	245.71399	259.10974	-1668.58459	281.74307	321.37701	-1224.42932	1245.90295	159.99529	-1242.18591	969.27246	234.99216	-1231.08801	1105.30823	152.75044	-1067.83777	1620.29272	311.79962	-1229.33630	978.99066	106.02879	-978.04541	491.15714	172.65723	-944.82251	88.06787																						191.84251	-1169.57520	1656.46155						 
19	0.180	337.95462	-1232.79150	453.88220	273.39633	-1619.23792	112.03644	358.55441	-905.30054	1063.58020	61.78974	-1036.96472	636.99628	488.09705	-1082.73572	1096.99829	416.79605	-984.16840	1081.70483	471.30157	-1098.13672	1187.24792	341.51080	-1049.91211	914.00098	123.24036	-955.49603	292.01938	341.93576	-922.98029	1111.28528	375.57040	-1181.23950	628.89044	68.73299	-1094.05457	1383.59680	205.88712	-774.21259	50.22011	347.55542	-1409.51074	361.04004	-9.33761	-1164.55579	980.48260	205.34711	-1026.56396	1332.58154	115.72639	-1058.32324	926.04376	359.51950	-1070.59167	1381.21301	284.31805	-1058.76208	1619.74255	202.23863	-991.53711	1163.16492	223.00912	-961.40729	57.60336	321.39987	-847.29816	1090.25085	268.97821	-1164.09070	1544.83105	-76.33377	-1202.78345	1080.28760	207.56384	-1153.45288	1403.65637	-65.96677	-1163.25317	969.90765	-27.80779	-1178.24158	883.06372	-58.11489	-1196.09912	1275.60071	139.53661	-1147.79980	1543.23083	-105.35471	-1252.63831	1183.56335	311.45306	-1598.75391	257.75415	261.53555	-1632.05701	294.47675	320.88943	-1193.08765	1243.63892	161.05544	-1212.27405	965.87427	235.08585	-1200.81543	1102.56726	152.76071	-1037.36926	1619.15308	312.90619	-1199.92798	976.65778	107.45947	-948.22858	489.85287	178.15437	-929.39819	84.79155																						190.82671	-1139.60938	1653.99866						 
20	0.190	339.22543	-1184.83862	446.10721	280.08728	-1585.37134	124.29103	362.70300	-879.89252	1045.30139	63.18503	-1009.47693	633.84613	490.04019	-1056.73755	1092.76721	419.85608	-957.93237	1069.02490	472.78061	-1070.70471	1184.55298	342.32791	-1019.26892	913.03650	126.56481	-935.13080	288.17987	344.58337	-894.01770	1093.27600	376.26480	-1140.60071	623.52643	67.05164	-1061.49854	1378.38916	211.57404	-765.48779	40.70678	348.59601	-1364.15222	360.94977	-8.27081	-1121.08850	969.09180	205.48044	-994.74817	1329.12231	116.06675	-1029.10315	922.99542	359.98526	-1038.50134	1377.50061	284.21591	-1029.28345	1617.09741	203.37077	-960.81982	1159.36926	227.84737	-952.39844	54.50059	325.58640	-819.62036	1066.81848	268.19977	-1133.85388	1541.19543	-76.37278	-1160.25757	1067.69592	206.73137	-1121.43042	1400.53613	-64.64225	-1119.30872	958.16681	-25.76245	-1131.53064	871.36993	-59.52283	-1158.72351	1264.34802	138.85263	-1116.56836	1539.67322	-106.33066	-1211.55981	1169.95386	315.71884	-1559.14612	268.87949	265.35361	-1591.67554	306.80054	320.51297	-1162.33521	1241.37268	162.77185	-1182.96033	961.54865	235.15926	-1170.83691	1099.22632	152.63945	-1007.04608	1616.52356	314.20883	-1170.81738	972.71716	108.70559	-918.59137	487.75046	183.03613	-919.08917	80.29393																						190.13359	-1109.83301	1650.45752						 
21	0.200	341.34503	-1135.26587	437.51114	287.59146	-1546.75037	135.96121	368.37686	-855.20313	1024.97595	65.96847	-980.00391	632.81305	491.20853	-1031.45313	1087.94238	423.48016	-932.45343	1054.99951	473.76205	-1043.45728	1181.12524	343.50076	-988.91132	911.20300	129.10593	-917.03497	283.43320	348.29767	-865.86499	1072.96521	377.85358	-1100.10999	617.36884	65.53136	-1028.64880	1371.94800	218.60132	-759.86304	36.82508	350.36520	-1316.08740	360.17319	-6.59274	-1077.05188	955.85779	205.91737	-964.03906	1324.20581	116.25904	-999.93964	920.18585	360.13174	-1006.36401	1372.74475	284.06488	-999.74854	1613.33997	204.53964	-930.33063	1154.47314	230.64040	-949.78082	48.88642	331.36929	-793.17139	1040.91577	267.39862	-1103.41602	1536.37158	-75.65274	-1116.48914	1053.20642	205.99358	-1089.34351	1396.61719	-62.56075	-1073.98108	944.73865	-23.77385	-1082.68445	858.06372	-61.09518	-1120.49500	1251.83582	138.23470	-1085.19629	1534.84802	-106.23545	-1168.73865	1154.51990	320.14804	-1515.81360	279.31351	269.59219	-1548.04114	318.32764	320.12250	-1131.87024	1238.88135	164.95500	-1154.09094	956.56165	235.29430	-1141.30884	1095.57092	152.56105	-976.66418	1612.72107	315.70764	-1141.84229	967.30353	109.58687	-890.15900	483.71512	188.28545	-913.68109	76.42348																						189.42346	-1079.92163	1645.71765						 
22	0.210	344.07971	-1084.36011	428.27158	296.09418	-1503.03857	146.45361	375.56940	-831.38959	1003.32788	68.71648	-948.88513	632.23364	491.80511	-1006.53528	1082.50305	427.87622	-907.62878	1040.28125	474.35413	-1016.35809	1176.90271	345.09033	-958.87329	908.22644	130.58441	-900.87592	278.07324	352.84650	-838.90442	1050.72998	380.21744	-1059.57031	610.22418	63.84456	-995.35559	1364.34668	221.58482	-760.76111	34.06256	352.52063	-1265.46021	358.36414	-4.11345	-1032.13916	940.94092	206.36006	-932.64557	1318.47449	116.53642	-970.74457	917.62659	360.03000	-974.34802	1367.00684	284.25858	-970.46118	1608.57825	205.80264	-899.83734	1148.49927	234.48975	-951.46594	45.94763	338.20477	-768.77032	1013.08179	266.73071	-1073.01050	1530.48425	-74.28539	-1071.44067	1037.20007	205.25969	-1057.52563	1391.93384	-60.05032	-1027.32886	930.10712	-21.29441	-1032.22278	843.29565	-62.38137	-1081.34863	1237.69446	137.63437	-1053.82312	1528.94531	-105.80346	-1124.74231	1137.64844	324.08585	-1469.20020	288.74469	273.21863	-1501.57581	328.40213	319.43469	-1101.88977	1235.98340	167.30544	-1125.79004	950.92957	235.48064	-1111.64917	1091.66431	152.65356	-946.27777	1607.63989	317.35605	-1113.00378	960.50226	110.40165	-862.69702	477.99152	193.51822	-914.19214	73.85855																						188.61876	-1049.91040	1639.91968						 
23	0.220	347.61423	-1032.12512	419.02692	304.68954	-1454.05322	155.19412	383.27869	-809.34387	980.26154	68.96806	-917.07410	630.20563	491.73596	-981.68127	1076.53735	432.66315	-883.81665	1024.49670	474.55698	-989.37952	1171.77771	346.44000	-929.59601	903.93579	131.25978	-884.91577	273.49625	358.31424	-813.41901	1027.11646	383.09982	-1018.81299	601.95087	62.09419	-961.62677	1355.88721	224.03908	-760.47028	33.57021	355.39746	-1212.93738	356.18488	-0.53996	-986.66138	924.74762	206.81299	-901.19067	1311.86780	116.14460	-940.55212	915.16290	359.94537	-943.00519	1360.60339	284.09439	-940.67523	1602.98401	207.31638	-869.33923	1141.55542	235.82747	-951.87030	43.50664	347.46191	-745.24768	984.32068	266.04617	-1042.28235	1523.66443	-72.23849	-1025.31726	1019.88306	204.36916	-1026.01025	1386.21423	-56.49184	-979.38098	914.67841	-18.28211	-980.18762	828.03320	-63.36303	-1041.42041	1222.09277	137.07681	-1022.38092	1522.14551	-104.61409	-1079.68774	1119.72986	327.73697	-1419.66638	297.14862	275.99609	-1452.71594	336.33380	318.32925	-1072.23267	1232.34363	169.54681	-1098.10413	944.76721	235.90265	-1081.81567	1087.28552	152.49669	-915.80048	1601.90002	319.21704	-1084.41785	952.65771	111.22717	-835.73907	471.61157	195.45407	-912.50842	71.99600																						187.94144	-1019.87683	1633.13257						 
24	0.230	351.33490	-978.87030	410.60422	313.26505	-1400.19812	161.75092	391.89706	-788.77362	957.02631	68.47080	-886.26825	625.74921	491.16333	-957.00006	1069.78857	437.54135	-860.97400	1008.01001	474.31985	-962.45374	1165.47595	347.66544	-901.08868	898.43750	131.89706	-865.58942	269.73804	364.52600	-789.46759	1002.23804	386.01846	-977.72266	593.06677	60.21845	-927.52264	1346.54468	222.85968	-758.15015	33.11857	358.84979	-1158.81287	354.09015	4.31039	-940.76990	907.96729	207.30014	-868.96185	1305.02588	116.60522	-913.69415	910.88916	360.17990	-912.22388	1353.90466	284.05807	-910.80713	1597.21252	209.16595	-838.97687	1133.92664	236.40926	-949.79114	43.92733	357.91235	-723.77094	955.14581	265.58105	-1011.60229	1516.46155	-69.13192	-978.07251	1001.92822	203.30449	-994.73157	1379.95593	-51.56269	-930.18091	899.04889	-14.31159	-927.12445	812.77014	-63.88877	-1000.52112	1205.15234	136.60057	-990.80603	1514.92883	-102.84261	-1033.58521	1100.92383	331.02719	-1367.29443	303.84805	278.42535	-1401.53674	341.99155	316.82806	-1043.00134	1227.69275	171.48015	-1071.04578	938.40369	236.63593	-1052.09851	1082.31433	152.95673	-884.92578	1596.27502	321.22662	-1056.35083	944.05328	111.54003	-809.80023	464.53223	196.08022	-907.92120	71.42451																						187.19331	-989.99005	1625.88367						 
25	0.240	354.80283	-924.64349	404.04742	321.22153	-1342.34241	166.00829	401.30515	-769.59418	933.60730	69.08842	-857.93091	619.62189	490.33276	-932.53119	1062.35132	442.75183	-839.08173	991.42633	473.31961	-935.73676	1157.81567	348.13748	-873.26196	892.08337	133.09415	-845.94037	266.98346	371.10623	-767.48828	976.87842	388.40643	-935.71851	584.28815	58.25682	-893.21954	1336.96899	223.76222	-757.46967	32.93544	362.49808	-1103.12549	352.22516	10.57237	-893.95154	891.26550	207.94322	-837.39276	1297.46936	116.89103	-886.40125	906.58014	360.86942	-882.23395	1347.18188	283.91043	-880.80170	1591.61707	211.13823	-808.96643	1125.86377	237.63817	-949.04224	45.45437	369.40012	-704.70801	927.00763	265.11411	-980.70026	1509.32068	-64.82592	-930.07867	983.64020	201.82164	-963.41113	1373.39258	-45.10543	-879.51563	883.84979	-9.21358	-873.24292	798.00671	-63.89500	-958.54608	1187.29407	136.18732	-959.07605	1507.77673	-100.29035	-986.41644	1081.78918	334.01736	-1312.21558	308.38223	281.17371	-1348.19495	345.32047	314.96252	-1014.04669	1222.14319	173.26874	-1044.27625	932.08124	237.61346	-1022.78503	1076.72278	152.94679	-854.23065	1590.83398	323.29025	-1028.96619	935.03229	112.24025	-784.83459	457.40823	197.24902	-905.39868	72.17301																						186.51169	-960.21942	1618.62244						 
